<?xml version="1.0" encoding="UTF-8" standalone="no"?>
<svg
   width="100mm"
   height="100mm"
   viewBox="0 0 377.95298 377.95277"
   version="1.1"
   xml:space="preserve"
   style="clip-rule:evenodd;fill-rule:evenodd;stroke-linejoin:round;stroke-miterlimit:2"
   id="svg1376"
   sodipodi:docname="hsmw.svg"
   inkscape:version="1.1.2 (b8e25be833, 2022-02-05)"
   xmlns:inkscape="http://www.inkscape.org/namespaces/inkscape"
   xmlns:sodipodi="http://sodipodi.sourceforge.net/DTD/sodipodi-0.dtd"
   xmlns="http://www.w3.org/2000/svg"
   xmlns:svg="http://www.w3.org/2000/svg"><defs
   id="defs1380">
        
    </defs><sodipodi:namedview
   id="namedview1378"
   pagecolor="#ffffff"
   bordercolor="#cccccc"
   borderopacity="1"
   inkscape:pageshadow="0"
   inkscape:pageopacity="1"
   inkscape:pagecheckerboard="0"
   showgrid="false"
   fit-margin-top="0"
   fit-margin-left="0"
   fit-margin-right="0"
   fit-margin-bottom="0"
   inkscape:zoom="1.8314607"
   inkscape:cx="196.29141"
   inkscape:cy="160.52761"
   inkscape:window-width="2560"
   inkscape:window-height="1377"
   inkscape:window-x="-8"
   inkscape:window-y="-8"
   inkscape:window-maximized="1"
   inkscape:current-layer="svg1376"
   units="mm"
   width="100mm"
   inkscape:document-units="mm" />
    
    <path
   d="m 115.97009,249.12406 c -30.722734,11.65543 -64.685481,11.65543 -95.40822,0 -0.236549,-0.0717 -0.480267,-0.11469 -0.723984,-0.11469 -1.297437,0 -2.365493,1.06806 -2.365493,2.3655 0,0.0645 0,0.12185 0.0072,0.18637 v 110.81977 c -0.07168,0.9892 0.46593,1.92823 1.361951,2.36549 31.131323,15.37571 67.717618,15.37571 98.848938,0 0.87452,-0.48743 1.40496,-1.43363 1.36195,-2.43717 V 251.56124 c 0.007,-0.0645 0.007,-0.12186 0.007,-0.18637 0,-1.29744 -1.06806,-2.3655 -2.36549,-2.3655 -0.24372,0 -0.48744,0.043 -0.72399,0.11469"
   style="fill:#0069b4;fill-rule:nonzero;stroke-width:7.16816"
   id="path1358" />
    <path
   d="m 264.42271,376.14388 c 30.70123,-11.6626 64.63531,-11.6626 95.33654,0 0.23655,0.0717 0.48027,0.10752 0.72398,0.10752 1.33328,0 2.43718,-1.09673 2.43718,-2.43718 0,-0.0573 0,-0.12185 -0.007,-0.1792 V 262.88693 c 0.0143,-1.01788 -0.53761,-1.95691 -1.43363,-2.43717 -31.11699,-15.3327 -67.66027,-15.3327 -98.77726,0 -0.89602,0.48026 -1.44797,1.41929 -1.43363,2.43717 v 110.74809 c -0.007,0.0573 -0.007,0.12186 -0.007,0.1792 0,1.34045 1.1039,2.43718 2.43717,2.43718 0.24372,0 0.48744,-0.0358 0.72399,-0.10752"
   style="fill:#0069b4;fill-rule:nonzero;stroke-width:7.16816"
   id="path1360" />
    <path
   d="m 142.49229,376.14388 c 30.72274,-11.65543 64.68548,-11.65543 95.40822,0 0.23655,0.0788 0.48027,0.11469 0.73115,0.11469 1.29744,0 2.3655,-1.06806 2.3655,-2.3655 0,-0.086 -0.007,-0.17203 -0.0143,-0.25805 V 262.88693 c 0.0502,-1.02505 -0.51611,-1.98558 -1.43363,-2.43717 -31.11699,-15.3327 -67.66027,-15.3327 -98.77726,0 -0.87452,0.48743 -1.40496,1.43363 -1.36195,2.43717 v 110.74809 c -0.007,0.086 -0.0143,0.17204 -0.0143,0.25805 0,1.29744 1.06806,2.3655 2.3655,2.3655 0.25088,0 0.4946,-0.0358 0.73115,-0.11469"
   style="fill:#0069b4;fill-rule:nonzero;stroke-width:7.16816"
   id="path1362" />
    <path
   d="m 115.97009,108.19802 c -30.722734,11.65543 -64.685481,11.65543 -95.40822,0 -0.215045,-0.0573 -0.430089,-0.086 -0.652302,-0.086 -1.333278,-2e-5 -2.437175,1.09671 -2.437175,2.43715 0,0.0502 0.0072,0.10752 0.0072,0.1577 v 111.1065 c -0.04301,1.00354 0.487435,1.94974 1.361951,2.43717 31.116987,15.41872 67.731954,15.41872 98.848938,0 0.89602,-0.43725 1.43363,-1.37628 1.36195,-2.36549 V 110.70687 c 0,-0.0502 0.007,-0.10752 0.007,-0.1577 0,-1.34044 -1.1039,-2.43717 -2.43717,-2.43717 -0.22222,0 -0.43726,0.0287 -0.65231,0.086"
   style="fill:#0069b4;fill-rule:nonzero;stroke-width:7.16816"
   id="path1364" />
    <path
   d="m 264.42271,235.28951 c 30.70123,-11.6626 64.63531,-11.6626 95.33654,0 0.23655,0.0717 0.48027,0.10752 0.72398,0.10752 1.33328,0 2.43718,-1.09672 2.43718,-2.43717 0,-0.0573 0,-0.12186 -0.007,-0.1792 V 122.03257 c 0.0143,-1.01788 -0.53761,-1.95691 -1.43363,-2.43718 -31.09548,-15.42588 -67.68178,-15.42588 -98.77726,0 -0.89602,0.44443 -1.45514,1.36912 -1.43363,2.36549 v 110.81978 c -0.007,0.0573 -0.007,0.12185 -0.007,0.1792 0,1.34045 1.1039,2.43717 2.43717,2.43717 0.24372,0 0.48744,-0.0358 0.72399,-0.10752"
   style="fill:#0069b4;fill-rule:nonzero;stroke-width:7.16816"
   id="path1366" />
    <path
   d="m 142.49229,235.28951 c 30.72274,-11.65543 64.68548,-11.65543 95.40822,0 0.21505,0.0573 0.43009,0.086 0.6523,0.086 1.33328,0 2.43718,-1.09673 2.43718,-2.43718 0,-0.0502 -0.007,-0.10752 -0.007,-0.15769 V 13.936697 c 0.0502,-1.025047 -0.51611,-1.98558 -1.43363,-2.437175 -31.11699,-15.3326961 -67.66027,-15.3326961 -98.77726,0 -0.86735,0.465931 -1.39779,1.383456 -1.36195,2.365494 V 232.78066 c -0.007,0.086 -0.0143,0.17203 -0.0143,0.25805 0,1.29744 1.06806,2.36549 2.3655,2.36549 0.25088,0 0.4946,-0.0358 0.73115,-0.11469"
   style="fill:#0069b4;fill-rule:nonzero;stroke-width:7.16816"
   id="path1368" />
    
    
    
</svg>
